<mxfile host="app.diagrams.net" agent="Mozilla/5.0 (Windows NT 10.0; Win64; x64) AppleWebKit/537.36 (KHTML, like Gecko) Chrome/131.0.0.0 Safari/537.36" version="26.1.0">
  <diagram name="Página-1" id="msEZNjzXwrmaCIXLmowb">
    <mxGraphModel dx="607" dy="728" grid="1" gridSize="10" guides="1" tooltips="1" connect="1" arrows="1" fold="1" page="1" pageScale="1" pageWidth="827" pageHeight="1169" math="0" shadow="0">
      <root>
        <mxCell id="0" />
        <mxCell id="1" parent="0" />
        <mxCell id="ZZm1BrsvM1OdsEognAes-1" value="Cliente" style="shape=umlActor;verticalLabelPosition=bottom;verticalAlign=top;html=1;outlineConnect=0;labelBackgroundColor=none;" parent="1" vertex="1">
          <mxGeometry x="966" y="170" width="30" height="60" as="geometry" />
        </mxCell>
        <mxCell id="ZZm1BrsvM1OdsEognAes-4" value=":Menú cajero" style="rounded=0;whiteSpace=wrap;html=1;fillColor=#A8DADC;strokeColor=#457B9D;labelBackgroundColor=none;fontColor=#1D3557;" parent="1" vertex="1">
          <mxGeometry x="1197" y="189" width="110" height="43" as="geometry" />
        </mxCell>
        <mxCell id="ZZm1BrsvM1OdsEognAes-8" value="01 Ingresar datos de cuenta" style="text;html=1;align=center;verticalAlign=middle;whiteSpace=wrap;rounded=0;labelBackgroundColor=none;fontColor=#1D3557;" parent="1" vertex="1">
          <mxGeometry x="1002" y="80" width="170" height="30" as="geometry" />
        </mxCell>
        <mxCell id="ZZm1BrsvM1OdsEognAes-9" value="03 Seleccionar operación" style="text;html=1;align=center;verticalAlign=middle;whiteSpace=wrap;rounded=0;labelBackgroundColor=none;fontColor=#1D3557;" parent="1" vertex="1">
          <mxGeometry x="996" y="100" width="170" height="30" as="geometry" />
        </mxCell>
        <mxCell id="ZZm1BrsvM1OdsEognAes-11" value="07 Ingresar dinero" style="text;html=1;align=center;verticalAlign=middle;whiteSpace=wrap;rounded=0;labelBackgroundColor=none;fontColor=#1D3557;" parent="1" vertex="1">
          <mxGeometry x="1002" y="120" width="170" height="30" as="geometry" />
        </mxCell>
        <mxCell id="ZZm1BrsvM1OdsEognAes-12" value="09 Consultar saldo" style="text;html=1;align=center;verticalAlign=middle;whiteSpace=wrap;rounded=0;labelBackgroundColor=none;fontColor=#1D3557;" parent="1" vertex="1">
          <mxGeometry x="996" y="140" width="170" height="30" as="geometry" />
        </mxCell>
        <mxCell id="ZZm1BrsvM1OdsEognAes-13" value="10 Retirar dinero" style="text;html=1;align=center;verticalAlign=middle;whiteSpace=wrap;rounded=0;labelBackgroundColor=none;fontColor=#1D3557;" parent="1" vertex="1">
          <mxGeometry x="1002" y="160" width="170" height="30" as="geometry" />
        </mxCell>
        <mxCell id="ZZm1BrsvM1OdsEognAes-15" value=":Banco" style="rounded=0;whiteSpace=wrap;html=1;fillColor=#A8DADC;strokeColor=#457B9D;labelBackgroundColor=none;fontColor=#1D3557;" parent="1" vertex="1">
          <mxGeometry x="1376" y="100" width="110" height="43" as="geometry" />
        </mxCell>
        <mxCell id="ZZm1BrsvM1OdsEognAes-16" value="" style="endArrow=none;html=1;rounded=0;exitX=0.75;exitY=0;exitDx=0;exitDy=0;entryX=0;entryY=0.5;entryDx=0;entryDy=0;labelBackgroundColor=none;strokeColor=#457B9D;fontColor=default;" parent="1" source="ZZm1BrsvM1OdsEognAes-4" target="ZZm1BrsvM1OdsEognAes-15" edge="1">
          <mxGeometry width="50" height="50" relative="1" as="geometry">
            <mxPoint x="1296" y="178.5" as="sourcePoint" />
            <mxPoint x="1433.5" y="236.5" as="targetPoint" />
          </mxGeometry>
        </mxCell>
        <mxCell id="ZZm1BrsvM1OdsEognAes-17" value="" style="endArrow=classic;html=1;rounded=0;labelBackgroundColor=none;strokeColor=#457B9D;fontColor=default;" parent="1" edge="1">
          <mxGeometry width="50" height="50" relative="1" as="geometry">
            <mxPoint x="1276" y="180" as="sourcePoint" />
            <mxPoint x="1346" y="130" as="targetPoint" />
            <Array as="points">
              <mxPoint x="1315" y="153" />
            </Array>
          </mxGeometry>
        </mxCell>
        <mxCell id="ZZm1BrsvM1OdsEognAes-18" value="02 Verificar los datos" style="text;html=1;align=center;verticalAlign=middle;whiteSpace=wrap;rounded=0;labelBackgroundColor=none;fontColor=#1D3557;" parent="1" vertex="1">
          <mxGeometry x="1186" y="120" width="170" height="30" as="geometry" />
        </mxCell>
        <mxCell id="ZZm1BrsvM1OdsEognAes-19" value="04 Autorizar operación" style="text;html=1;align=center;verticalAlign=middle;whiteSpace=wrap;rounded=0;labelBackgroundColor=none;fontColor=#1D3557;" parent="1" vertex="1">
          <mxGeometry x="1167" y="133.5" width="170" height="30" as="geometry" />
        </mxCell>
        <mxCell id="ZZm1BrsvM1OdsEognAes-20" value="06 Actualizar saldo" style="text;html=1;align=center;verticalAlign=middle;whiteSpace=wrap;rounded=0;labelBackgroundColor=none;fontColor=#1D3557;" parent="1" vertex="1">
          <mxGeometry x="1307" y="232" width="170" height="30" as="geometry" />
        </mxCell>
        <mxCell id="ZZm1BrsvM1OdsEognAes-21" value=":Sistema" style="rounded=0;whiteSpace=wrap;html=1;fillColor=#A8DADC;strokeColor=#457B9D;labelBackgroundColor=none;fontColor=#1D3557;" parent="1" vertex="1">
          <mxGeometry x="1376" y="300" width="110" height="43" as="geometry" />
        </mxCell>
        <mxCell id="ZZm1BrsvM1OdsEognAes-22" value="" style="endArrow=none;html=1;rounded=0;entryX=0;entryY=0.25;entryDx=0;entryDy=0;labelBackgroundColor=none;strokeColor=#457B9D;fontColor=default;" parent="1" edge="1">
          <mxGeometry width="50" height="50" relative="1" as="geometry">
            <mxPoint x="996" y="210.3926388888889" as="sourcePoint" />
            <mxPoint x="1197" y="210.16" as="targetPoint" />
          </mxGeometry>
        </mxCell>
        <mxCell id="ZZm1BrsvM1OdsEognAes-23" value="" style="endArrow=classic;html=1;rounded=0;labelBackgroundColor=none;strokeColor=#457B9D;fontColor=default;" parent="1" edge="1">
          <mxGeometry width="50" height="50" relative="1" as="geometry">
            <mxPoint x="1002" y="199.66" as="sourcePoint" />
            <mxPoint x="1192" y="199.66" as="targetPoint" />
          </mxGeometry>
        </mxCell>
        <mxCell id="ZZm1BrsvM1OdsEognAes-24" value="" style="endArrow=none;html=1;rounded=0;entryX=0;entryY=0;entryDx=0;entryDy=0;exitX=1;exitY=1;exitDx=0;exitDy=0;labelBackgroundColor=none;strokeColor=#457B9D;fontColor=default;" parent="1" source="ZZm1BrsvM1OdsEognAes-4" target="ZZm1BrsvM1OdsEognAes-21" edge="1">
          <mxGeometry width="50" height="50" relative="1" as="geometry">
            <mxPoint x="1246" y="210" as="sourcePoint" />
            <mxPoint x="1296" y="160" as="targetPoint" />
          </mxGeometry>
        </mxCell>
        <mxCell id="ZZm1BrsvM1OdsEognAes-25" value="" style="endArrow=classic;html=1;rounded=0;labelBackgroundColor=none;strokeColor=#457B9D;fontColor=default;" parent="1" edge="1">
          <mxGeometry width="50" height="50" relative="1" as="geometry">
            <mxPoint x="1296" y="240" as="sourcePoint" />
            <mxPoint x="1366" y="310" as="targetPoint" />
          </mxGeometry>
        </mxCell>
        <mxCell id="ZZm1BrsvM1OdsEognAes-26" value="05 Procesa operación" style="text;html=1;align=center;verticalAlign=middle;whiteSpace=wrap;rounded=0;labelBackgroundColor=none;fontColor=#1D3557;" parent="1" vertex="1">
          <mxGeometry x="1316" y="220" width="140" height="30" as="geometry" />
        </mxCell>
        <mxCell id="ZZm1BrsvM1OdsEognAes-27" value="08 Libera recurso" style="text;html=1;align=center;verticalAlign=middle;whiteSpace=wrap;rounded=0;labelBackgroundColor=none;fontColor=#1D3557;" parent="1" vertex="1">
          <mxGeometry x="1317" y="245" width="170" height="30" as="geometry" />
        </mxCell>
        <mxCell id="ZZm1BrsvM1OdsEognAes-28" value="11 Imprimir comprobante" style="text;html=1;align=center;verticalAlign=middle;whiteSpace=wrap;rounded=0;labelBackgroundColor=none;fontColor=#1D3557;" parent="1" vertex="1">
          <mxGeometry x="1346" y="262" width="170" height="30" as="geometry" />
        </mxCell>
      </root>
    </mxGraphModel>
  </diagram>
</mxfile>
